<?xml version="1.0" encoding="UTF-8"?>
<!DOCTYPE svg PUBLIC "-//W3C//DTD SVG 1.1//EN" "http://www.w3.org/Graphics/SVG/1.1/DTD/svg11.dtd">
<svg xmlns="http://www.w3.org/2000/svg" version="1.1" width="600px" height="600px" style="shape-rendering:geometricPrecision; text-rendering:geometricPrecision; image-rendering:optimizeQuality; fill-rule:evenodd; clip-rule:evenodd" xmlns:xlink="http://www.w3.org/1999/xlink">
<g><path style="opacity:1" fill="#73d3f5" d="M -0.5,-0.5 C 199.5,-0.5 399.5,-0.5 599.5,-0.5C 599.5,199.5 599.5,399.5 599.5,599.5C 565.167,599.5 530.833,599.5 496.5,599.5C 492.547,564.136 480.047,532.136 459,503.5C 436.445,473.61 408.445,450.277 375,433.5C 366.164,447.174 357.331,460.84 348.5,474.5C 342.139,467.807 335.806,461.14 329.5,454.5C 327.124,462.927 322.957,470.26 317,476.5C 305.146,479.127 293.312,479.127 281.5,476.5C 275.943,470.055 271.943,462.722 269.5,454.5C 263.179,461.659 256.512,468.159 249.5,474C 241.443,460.039 232.777,446.539 223.5,433.5C 162.081,464.76 122.581,513.76 105,580.5C 103.652,586.772 102.818,593.105 102.5,599.5C 68.1667,599.5 33.8333,599.5 -0.5,599.5C -0.5,399.5 -0.5,199.5 -0.5,-0.5 Z"/></g>
<g><path style="opacity:1" fill="#fefefe" d="M 203.5,178.5 C 267.501,178.333 331.501,178.5 395.5,179C 396.333,179.833 397.167,180.667 398,181.5C 398.667,245.5 398.667,309.5 398,373.5C 397.167,374.333 396.333,375.167 395.5,376C 331.5,376.667 267.5,376.667 203.5,376C 202.667,375.167 201.833,374.333 201,373.5C 200.333,309.5 200.333,245.5 201,181.5C 202.045,180.627 202.878,179.627 203.5,178.5 Z"/></g>
<g><path style="opacity:1" fill="#fdfefe" d="M 273.5,416.5 C 275.527,416.338 277.527,416.505 279.5,417C 282.339,418.92 285.339,420.587 288.5,422C 276.333,434.167 264.167,446.333 252,458.5C 246.667,449.833 241.333,441.167 236,432.5C 235.018,431.241 234.685,429.908 235,428.5C 247.525,423.156 260.358,419.156 273.5,416.5 Z"/></g>
<g><path style="opacity:1" fill="#fdfefe" d="M 318.5,416.5 C 331.216,417.595 343.55,420.429 355.5,425C 358.754,426.027 361.754,427.527 364.5,429.5C 358.667,439.167 352.833,448.833 347,458.5C 334.833,446.333 322.667,434.167 310.5,422C 313.07,419.913 315.737,418.08 318.5,416.5 Z"/></g>
<g><path style="opacity:1" fill="#fefefe" d="M 496.5,599.5 C 437.833,599.5 379.167,599.5 320.5,599.5C 324.245,592.341 327.745,585.007 331,577.5C 332.037,573.922 332.537,570.256 332.5,566.5C 328.924,540.042 324.59,513.708 319.5,487.5C 306.167,488.833 292.833,488.833 279.5,487.5C 274.41,513.708 270.076,540.042 266.5,566.5C 266.463,570.256 266.963,573.922 268,577.5C 271.255,585.007 274.755,592.341 278.5,599.5C 219.833,599.5 161.167,599.5 102.5,599.5C 102.818,593.105 103.652,586.772 105,580.5C 122.581,513.76 162.081,464.76 223.5,433.5C 232.777,446.539 241.443,460.039 249.5,474C 256.512,468.159 263.179,461.659 269.5,454.5C 271.943,462.722 275.943,470.055 281.5,476.5C 293.312,479.127 305.146,479.127 317,476.5C 322.957,470.26 327.124,462.927 329.5,454.5C 335.806,461.14 342.139,467.807 348.5,474.5C 357.331,460.84 366.164,447.174 375,433.5C 408.445,450.277 436.445,473.61 459,503.5C 480.047,532.136 492.547,564.136 496.5,599.5 Z"/></g>
<g><path style="opacity:1" fill="#74d3f5" d="M 320.5,599.5 C 306.5,599.5 292.5,599.5 278.5,599.5C 274.755,592.341 271.255,585.007 268,577.5C 266.963,573.922 266.463,570.256 266.5,566.5C 270.076,540.042 274.41,513.708 279.5,487.5C 292.833,488.833 306.167,488.833 319.5,487.5C 324.59,513.708 328.924,540.042 332.5,566.5C 332.537,570.256 332.037,573.922 331,577.5C 327.745,585.007 324.245,592.341 320.5,599.5 Z"/></g>
</svg>
