<svg xmlns="http://www.w3.org/2000/svg" width="69.283" height="40"><rect width="100%" height="100%" fill="#02a6f2"/><path fill="none" stroke="#fff" d="M46.189-20 57.736 0M46.189 20l11.547 20m-46.189 0 11.547 20M11.547 0l11.547 20m40.415 30H40.415M28.868 30H5.774m23.094-40H5.774m57.735 20H40.415m0 20L28.868 50m11.547-60L28.868 10m46.188 0L63.509 30M5.774 10-5.773 30m75.056 10H46.189L34.64 20 46.19 0h23.094q5.77 10 11.546 20zM57.736 60H34.64L23.094 40l11.547-20h23.095q5.773 10 11.547 20zm0-40H34.64L23.094 0l11.547-20h23.095L69.283 0c-3.87 6.7-8.118 14.06-11.547 20zM34.64 60H11.547L0 40l11.547-20h23.094L46.19 40zm0-40H11.547L0 0l11.547-20h23.094L46.19 0zM23.094 40H0l-5.773-10-5.774-10L0 0h23.094l11.547 20z"/></svg>